# xmcd
#
# Track frame offsets:
#	150
#	13712
#	23343
#	41588
#	55908
#	72149
#	84230
#	99466
#	110633
#	118036
#	136254
#	142753
#	155452
#	176857
#	192001
#	205052
#	215158
#	225070
#	237841
#
# Disc length: 3350 seconds
#
# Revision: 0
# Processed by: cddbd v1.5.2PL0 Copyright (c) Steve Scherf et al.
# Submitted via: EasyCDDAExtractor 16.0.8.2
#
DISCID=f20d1413
DTITLE=Συλλογικός δίσκος - Τα ωραιότερα ιταλικά τραγούδια 4
DYEAR=2011
DGENRE=Ξένη ιταλική
TTITLE0=Johnny Dorelli - Love in portofino
TTITLE1=Adriano Celentano - Basta
TTITLE2=Renato Rascal - Romantica
TTITLE3=Caterina Valente - Calypso Habanero
TTITLE4=Domenico Modugno - Nel blu, dipinto di blu
TTITLE5=Mina - L' ultima preghiera
TTITLE6=Renato Carosone - Io mammeta e tu
TTITLE7=Betty Curtis-Johnny Dorelli - Carolina dai!
TTITLE8=Adriano Celentano - Piccola
TTITLE9=Johnny Dorelli - Lettera a Pinocchio
TTITLE10=Sophia Loren - Soldi, soldi, soldi
TTITLE11=Renato Carosone - Malafemmina
TTITLE12=Nilla Pizzi - Colpevole
TTITLE13=Connie Francis - Roman guitar
TTITLE14=Marino Marini - Basta un poco di musica
TTITLE15=Peppino di Capri - Freva
TTITLE16=Adriano Celentano - Che dritta!
TTITLE17=Caterina Valente - E sempre bello
TTITLE18=Johnny Dorelli - Musetto
EXTD=
EXTT0=
EXTT1=
EXTT2=
EXTT3=
EXTT4=
EXTT5=
EXTT6=
EXTT7=
EXTT8=
EXTT9=
EXTT10=
EXTT11=
EXTT12=
EXTT13=
EXTT14=
EXTT15=
EXTT16=
EXTT17=
EXTT18=
PLAYORDER=
